<?xml version="1.0" encoding="UTF-8"?>
<svg id="Layer_2" data-name="Layer 2" xmlns="http://www.w3.org/2000/svg" xmlns:xlink="http://www.w3.org/1999/xlink" viewBox="0 0 442 718">
  <defs>
    <style>
      .cls-1 {
        font-family: Inter-Bold, Inter;
        font-size: 50.27px;
        font-weight: 700;
      }

      .cls-2 {
        letter-spacing: -.02em;
      }

      .cls-3, .cls-4, .cls-5, .cls-6, .cls-7, .cls-8 {
        fill: #fff;
      }

      .cls-9 {
        fill: url(#linear-gradient);
      }

      .cls-9, .cls-6 {
        stroke-width: 0px;
      }

      .cls-4 {
        letter-spacing: -.02em;
      }

      .cls-4, .cls-5, .cls-8, .cls-10 {
        font-family: Inter-SemiBold, Inter;
        font-weight: 600;
      }

      .cls-11 {
        letter-spacing: .03em;
      }

      .cls-12 {
        letter-spacing: 0em;
      }

      .cls-13 {
        letter-spacing: -.02em;
      }

      .cls-14 {
        letter-spacing: -.02em;
      }

      .cls-15 {
        letter-spacing: 0em;
      }

      .cls-5 {
        letter-spacing: -.03em;
      }

      .cls-16 {
        letter-spacing: -.04em;
      }

      .cls-17 {
        letter-spacing: -.08em;
      }

      .cls-18 {
        letter-spacing: 0em;
      }

      .cls-19, .cls-7, .cls-20 {
        font-size: 18.47px;
      }

      .cls-7, .cls-21 {
        font-family: Inter-Medium, Inter;
        font-weight: 500;
      }

      .cls-22 {
        letter-spacing: 0em;
      }

      .cls-10 {
        fill: #1652f0;
        font-size: 24.51px;
      }

      .cls-23 {
        letter-spacing: -.02em;
      }

      .cls-24 {
        letter-spacing: 0em;
      }

      .cls-25 {
        letter-spacing: .03em;
      }

      .cls-26 {
        letter-spacing: -.01em;
      }

      .cls-27 {
        letter-spacing: -.01em;
      }

      .cls-20 {
        font-family: Inter-Regular, Inter;
      }

      .cls-21 {
        fill: #0c2c66;
      }

      .cls-28 {
        letter-spacing: 0em;
      }
    </style>
    <linearGradient id="linear-gradient" x1="221" y1="721.13" x2="221" y2="243.95" gradientUnits="userSpaceOnUse">
      <stop offset="0" stop-color="#1866ef"/>
      <stop offset=".47" stop-color="#1652f0"/>
      <stop offset="1" stop-color="#1866ef"/>
    </linearGradient>
  </defs>
  <g id="Layer_1-2" data-name="Layer 1">
    <g>
      <rect class="cls-9" width="442" height="718" rx="24.17" ry="24.17"/>
      <g>
        <text class="cls-3" transform="translate(46.57 51.67)"><tspan class="cls-20"><tspan class="cls-16" x="0" y="0">F</tspan><tspan x="10.1" y="0">or Sta</tspan><tspan class="cls-11" x="62.1" y="0">r</tspan><tspan class="cls-22" x="69.6" y="0">t</tspan><tspan class="cls-24" x="76.21" y="0">ers</tspan></tspan><tspan class="cls-1"><tspan class="cls-27" x="0" y="60.32">P</tspan><tspan class="cls-28" x="31.83" y="60.32">a</tspan><tspan class="cls-23" x="60.99" y="60.32">k</tspan><tspan x="89.09" y="60.32">et Basic</tspan></tspan></text>
        <text class="cls-19" transform="translate(46.57 155.1)"><tspan class="cls-8" x="0" y="0">Rp2</tspan><tspan class="cls-4" x="35.03" y="0">.</tspan><tspan class="cls-8" x="39.95" y="0">30</tspan><tspan class="cls-5" x="64.3" y="0">0.</tspan><tspan class="cls-8" x="80.93" y="0">000 </tspan><tspan class="cls-21" x="122.47" y="0">/ bulan</tspan></text>
      </g>
      <g>
        <g>
          <text class="cls-7" transform="translate(77.84 225.29)"><tspan x="0" y="0">15 </tspan><tspan class="cls-16" x="25.07" y="0">K</tspan><tspan class="cls-24" x="36.61" y="0">on</tspan><tspan class="cls-22" x="58.76" y="0">t</tspan><tspan x="65.53" y="0">en Single Image</tspan><tspan x="0" y="32.16">5 Instag</tspan><tspan class="cls-18" x="71.03" y="32.16">r</tspan><tspan x="78.03" y="32.16">am S</tspan><tspan class="cls-22" x="121.64" y="32.16">t</tspan><tspan x="128.4" y="32.16">ories</tspan><tspan x="0" y="64.33">15 Captioning </tspan></text>
          <path class="cls-6" d="m57.2,208.2c-5.86,0-10.62,4.74-10.63,10.59,0,5.86,4.73,10.63,10.58,10.65,5.86.01,10.64-4.72,10.66-10.56.02-5.89-4.73-10.67-10.61-10.68Zm5.42,8.17c-.03.35-.2.63-.44.87-1.66,1.67-3.32,3.35-4.99,5-.7.69-1.44.68-2.13,0-.97-.95-1.92-1.91-2.88-2.87-.44-.45-.58-.98-.33-1.56.23-.55.67-.8,1.38-.8.3-.02.63.2.91.48.54.54,1.1,1.07,1.62,1.63.29.32.46.27.74-.01,1.25-1.28,2.52-2.54,3.79-3.8.46-.45,1.05-.55,1.57-.3.52.25.81.77.77,1.34Z"/>
        </g>
        <g>
          <text class="cls-7" transform="translate(77.84 331.29)"><tspan class="cls-15" x="0" y="0">P</tspan><tspan class="cls-24" x="11.68" y="0">embuatan st</tspan><tspan class="cls-18" x="121.96" y="0">r</tspan><tspan class="cls-24" x="128.97" y="0">a</tspan><tspan class="cls-22" x="139.48" y="0">t</tspan><tspan class="cls-12" x="146.24" y="0">egi </tspan><tspan class="cls-13" x="177.98" y="0">k</tspan><tspan class="cls-24" x="187.84" y="0">on</tspan><tspan class="cls-22" x="209.99" y="0">t</tspan><tspan class="cls-24" x="216.75" y="0">en </tspan></text>
          <path class="cls-6" d="m57.2,314.2c-5.86,0-10.62,4.74-10.63,10.59,0,5.86,4.73,10.63,10.58,10.65,5.86.01,10.64-4.72,10.66-10.56.02-5.89-4.73-10.67-10.61-10.68Zm5.42,8.17c-.03.35-.2.63-.44.87-1.66,1.67-3.32,3.35-4.99,5-.7.69-1.44.68-2.13,0-.97-.95-1.92-1.91-2.88-2.87-.44-.45-.58-.98-.33-1.56.23-.55.67-.8,1.38-.8.3-.02.63.2.91.48.54.54,1.1,1.07,1.62,1.63.29.32.46.27.74-.01,1.25-1.28,2.52-2.54,3.79-3.8.46-.45,1.05-.55,1.57-.3.52.25.81.77.77,1.34Z"/>
        </g>
        <g>
          <text class="cls-7" transform="translate(77.84 373.29)"><tspan class="cls-15" x="0" y="0">P</tspan><tspan class="cls-24" x="11.68" y="0">engelolaan </tspan><tspan class="cls-13" x="113.08" y="0">k</tspan><tspan class="cls-24" x="122.93" y="0">on</tspan><tspan class="cls-22" x="145.09" y="0">t</tspan><tspan x="151.85" y="0">en</tspan><tspan class="cls-26" x="173.73" y="0">,</tspan><tspan x="178.83" y="0" xml:space="preserve"> caption</tspan><tspan class="cls-26" x="249.74" y="0">,</tspan><tspan x="0" y="32.16">dan hashtag</tspan></text>
          <path class="cls-6" d="m57.2,356.2c-5.86,0-10.62,4.74-10.63,10.59,0,5.86,4.73,10.63,10.58,10.65,5.86.01,10.64-4.72,10.66-10.56.02-5.89-4.73-10.67-10.61-10.68Zm5.42,8.17c-.03.35-.2.63-.44.87-1.66,1.67-3.32,3.35-4.99,5-.7.69-1.44.68-2.13,0-.97-.95-1.92-1.91-2.88-2.87-.44-.45-.58-.98-.33-1.56.23-.55.67-.8,1.38-.8.3-.02.63.2.91.48.54.54,1.1,1.07,1.62,1.63.29.32.46.27.74-.01,1.25-1.28,2.52-2.54,3.79-3.8.46-.45,1.05-.55,1.57-.3.52.25.81.77.77,1.34Z"/>
        </g>
        <g>
          <text class="cls-7" transform="translate(77.84 447.29)"><tspan class="cls-15" x="0" y="0">P</tspan><tspan class="cls-24" x="11.68" y="0">embuatan jadwal penerbitan</tspan><tspan class="cls-13" x="0" y="32.16">k</tspan><tspan class="cls-24" x="9.86" y="32.16">on</tspan><tspan class="cls-22" x="32.01" y="32.16">t</tspan><tspan class="cls-24" x="38.77" y="32.16">en</tspan></text>
          <path class="cls-6" d="m57.2,430.2c-5.86,0-10.62,4.74-10.63,10.59,0,5.86,4.73,10.63,10.58,10.65,5.86.01,10.64-4.72,10.66-10.56.02-5.89-4.73-10.67-10.61-10.68Zm5.42,8.17c-.03.35-.2.63-.44.87-1.66,1.67-3.32,3.35-4.99,5-.7.69-1.44.68-2.13,0-.97-.95-1.92-1.91-2.88-2.87-.44-.45-.58-.98-.33-1.56.23-.55.67-.8,1.38-.8.3-.02.63.2.91.48.54.54,1.1,1.07,1.62,1.63.29.32.46.27.74-.01,1.25-1.28,2.52-2.54,3.79-3.8.46-.45,1.05-.55,1.57-.3.52.25.81.77.77,1.34Z"/>
        </g>
        <g>
          <text class="cls-7" transform="translate(77.84 521.29)"><tspan x="0" y="0">Lapo</tspan><tspan class="cls-18" x="43.46" y="0">r</tspan><tspan x="50.46" y="0">an Bulanan</tspan></text>
          <path class="cls-6" d="m57.2,504.2c-5.86,0-10.62,4.74-10.63,10.59,0,5.86,4.73,10.63,10.58,10.65,5.86.01,10.64-4.72,10.66-10.56.02-5.89-4.73-10.67-10.61-10.68Zm5.42,8.17c-.03.35-.2.63-.44.87-1.66,1.67-3.32,3.35-4.99,5-.7.69-1.44.68-2.13,0-.97-.95-1.92-1.91-2.88-2.87-.44-.45-.58-.98-.33-1.56.23-.55.67-.8,1.38-.8.3-.02.63.2.91.48.54.54,1.1,1.07,1.62,1.63.29.32.46.27.74-.01,1.25-1.28,2.52-2.54,3.79-3.8.46-.45,1.05-.55,1.57-.3.52.25.81.77.77,1.34Z"/>
        </g>
      </g>
      <g>
        <rect class="cls-6" x="47" y="609" width="348" height="61" rx="12.96" ry="12.96"/>
        <text class="cls-10" transform="translate(142.98 646.17)"><tspan x="0" y="0">S</tspan><tspan class="cls-2" x="15.91" y="0">a</tspan><tspan class="cls-14" x="29.51" y="0">y</tspan><tspan x="43.23" y="0">a </tspan><tspan class="cls-17" x="63.4" y="0">T</tspan><tspan x="77.62" y="0">e</tspan><tspan class="cls-25" x="92.15" y="0">r</tspan><tspan x="102.59" y="0">tarik</tspan></text>
      </g>
    </g>
  </g>
</svg>